<mxfile host="app.diagrams.net" modified="2024-03-19T12:59:19.585Z" agent="Mozilla/5.0 (Windows NT 10.0; Win64; x64) AppleWebKit/537.36 (KHTML, like Gecko) Chrome/122.0.0.0 Safari/537.36 Edg/122.0.0.0" etag="PlrfWV8dWNIdIJI8MvSS" version="24.0.4" type="device">
  <diagram name="Page-1" id="81ZJ_dmNMtKdWWuBw5_j">
    <mxGraphModel dx="807" dy="484" grid="1" gridSize="10" guides="1" tooltips="1" connect="1" arrows="1" fold="1" page="1" pageScale="1" pageWidth="827" pageHeight="1169" math="0" shadow="0">
      <root>
        <mxCell id="0" />
        <mxCell id="1" parent="0" />
        <mxCell id="C64z6q1H1fPUdhVZjdeV-1" value="A rectangle" style="rounded=0;whiteSpace=wrap;html=1;strokeWidth=2;" vertex="1" parent="1">
          <mxGeometry x="30" y="20" width="100" height="50" as="geometry" />
        </mxCell>
        <mxCell id="C64z6q1H1fPUdhVZjdeV-2" value="set of vertices" style="text;html=1;align=center;verticalAlign=middle;whiteSpace=wrap;rounded=0;strokeWidth=2;" vertex="1" parent="1">
          <mxGeometry x="130" y="30" width="110" height="30" as="geometry" />
        </mxCell>
        <mxCell id="C64z6q1H1fPUdhVZjdeV-3" value="Circle" style="ellipse;whiteSpace=wrap;html=1;aspect=fixed;strokeWidth=2;" vertex="1" parent="1">
          <mxGeometry x="50" y="90" width="70" height="70" as="geometry" />
        </mxCell>
        <mxCell id="C64z6q1H1fPUdhVZjdeV-4" value="one vertex" style="text;html=1;align=center;verticalAlign=middle;whiteSpace=wrap;rounded=0;strokeWidth=2;" vertex="1" parent="1">
          <mxGeometry x="130" y="110" width="60" height="30" as="geometry" />
        </mxCell>
        <mxCell id="C64z6q1H1fPUdhVZjdeV-6" value="x+1 core" style="whiteSpace=wrap;html=1;aspect=fixed;fillColor=#6600CC;fontColor=#FFFFFF;strokeWidth=2;fontSize=18;" vertex="1" parent="1">
          <mxGeometry x="90" y="240" width="60" height="60" as="geometry" />
        </mxCell>
        <mxCell id="C64z6q1H1fPUdhVZjdeV-7" value="The Graph" style="text;html=1;align=center;verticalAlign=middle;whiteSpace=wrap;rounded=0;strokeWidth=2;" vertex="1" parent="1">
          <mxGeometry x="265" y="120" width="310" height="30" as="geometry" />
        </mxCell>
        <mxCell id="C64z6q1H1fPUdhVZjdeV-9" value="x core" style="text;html=1;align=center;verticalAlign=middle;whiteSpace=wrap;rounded=0;fontColor=#CC0066;strokeWidth=2;fontSize=18;" vertex="1" parent="1">
          <mxGeometry x="205" y="200" width="60" height="30" as="geometry" />
        </mxCell>
        <mxCell id="C64z6q1H1fPUdhVZjdeV-11" value="" style="endArrow=none;html=1;rounded=0;entryX=0;entryY=0.5;entryDx=0;entryDy=0;exitX=1;exitY=0.5;exitDx=0;exitDy=0;strokeWidth=2;fontSize=18;" edge="1" parent="1" source="C64z6q1H1fPUdhVZjdeV-6" target="C64z6q1H1fPUdhVZjdeV-8">
          <mxGeometry width="50" height="50" relative="1" as="geometry">
            <mxPoint x="160" y="330" as="sourcePoint" />
            <mxPoint x="210" y="280" as="targetPoint" />
          </mxGeometry>
        </mxCell>
        <mxCell id="C64z6q1H1fPUdhVZjdeV-18" value="" style="endArrow=none;html=1;rounded=0;entryX=0.5;entryY=1;entryDx=0;entryDy=0;strokeWidth=2;fontSize=18;" edge="1" parent="1" source="C64z6q1H1fPUdhVZjdeV-10" target="C64z6q1H1fPUdhVZjdeV-6">
          <mxGeometry width="50" height="50" relative="1" as="geometry">
            <mxPoint x="200" y="405" as="sourcePoint" />
            <mxPoint x="250" y="355" as="targetPoint" />
          </mxGeometry>
        </mxCell>
        <mxCell id="C64z6q1H1fPUdhVZjdeV-36" value="" style="endArrow=none;html=1;rounded=0;exitX=0.5;exitY=0;exitDx=0;exitDy=0;entryX=0.5;entryY=1;entryDx=0;entryDy=0;strokeWidth=2;fontSize=18;" edge="1" parent="1" source="C64z6q1H1fPUdhVZjdeV-31" target="C64z6q1H1fPUdhVZjdeV-6">
          <mxGeometry width="50" height="50" relative="1" as="geometry">
            <mxPoint x="90" y="400" as="sourcePoint" />
            <mxPoint x="140" y="350" as="targetPoint" />
          </mxGeometry>
        </mxCell>
        <mxCell id="C64z6q1H1fPUdhVZjdeV-37" value="" style="endArrow=none;html=1;rounded=0;exitX=0.5;exitY=0;exitDx=0;exitDy=0;strokeWidth=2;fontSize=18;" edge="1" parent="1" source="C64z6q1H1fPUdhVZjdeV-32">
          <mxGeometry width="50" height="50" relative="1" as="geometry">
            <mxPoint x="330" y="450" as="sourcePoint" />
            <mxPoint x="120" y="300" as="targetPoint" />
          </mxGeometry>
        </mxCell>
        <mxCell id="C64z6q1H1fPUdhVZjdeV-48" value="" style="swimlane;startSize=0;fontColor=#00CC66;strokeColor=#00CC66;strokeWidth=2;fontSize=18;" vertex="1" parent="1">
          <mxGeometry x="30" y="190" width="750" height="450" as="geometry" />
        </mxCell>
        <mxCell id="C64z6q1H1fPUdhVZjdeV-19" value="At most x edges" style="text;html=1;align=center;verticalAlign=middle;whiteSpace=wrap;rounded=0;rotation=34;strokeWidth=2;fontSize=18;" vertex="1" parent="C64z6q1H1fPUdhVZjdeV-48">
          <mxGeometry x="175" y="165" width="110" height="30" as="geometry" />
        </mxCell>
        <mxCell id="C64z6q1H1fPUdhVZjdeV-15" value="UnLimited" style="text;html=1;align=center;verticalAlign=middle;whiteSpace=wrap;rounded=0;rotation=20;strokeWidth=2;fontSize=18;" vertex="1" parent="C64z6q1H1fPUdhVZjdeV-48">
          <mxGeometry x="390" y="205" width="60" height="30" as="geometry" />
        </mxCell>
        <mxCell id="C64z6q1H1fPUdhVZjdeV-12" value="Unknown edge number" style="text;html=1;align=center;verticalAlign=middle;whiteSpace=wrap;rounded=0;rotation=3;strokeWidth=2;fontSize=18;" vertex="1" parent="C64z6q1H1fPUdhVZjdeV-48">
          <mxGeometry x="150" y="60" width="200" height="30" as="geometry" />
        </mxCell>
        <mxCell id="C64z6q1H1fPUdhVZjdeV-21" value="" style="swimlane;startSize=0;fillColor=#CC0066;gradientColor=none;swimlaneFillColor=none;strokeColor=#CC0066;strokeWidth=2;fontSize=18;" vertex="1" parent="C64z6q1H1fPUdhVZjdeV-48">
          <mxGeometry x="10" y="40" width="470" height="290" as="geometry">
            <mxRectangle x="50" y="230" width="50" height="40" as="alternateBounds" />
          </mxGeometry>
        </mxCell>
        <mxCell id="C64z6q1H1fPUdhVZjdeV-32" value="x core" style="whiteSpace=wrap;html=1;aspect=fixed;fillColor=#CC0066;fontColor=#ffffff;strokeWidth=2;fontSize=18;" vertex="1" parent="C64z6q1H1fPUdhVZjdeV-21">
          <mxGeometry x="120" y="220" width="50" height="50" as="geometry" />
        </mxCell>
        <mxCell id="C64z6q1H1fPUdhVZjdeV-31" value="x core" style="whiteSpace=wrap;html=1;aspect=fixed;fillColor=#CC0066;fontColor=#ffffff;strokeWidth=2;fontSize=18;" vertex="1" parent="C64z6q1H1fPUdhVZjdeV-21">
          <mxGeometry x="20" y="180" width="50" height="50" as="geometry" />
        </mxCell>
        <mxCell id="C64z6q1H1fPUdhVZjdeV-10" value="Vertex A" style="ellipse;whiteSpace=wrap;html=1;aspect=fixed;fillColor=#CC0066;fontColor=#ffffff;strokeWidth=2;fontSize=18;" vertex="1" parent="C64z6q1H1fPUdhVZjdeV-21">
          <mxGeometry x="290" y="210" width="70" height="70" as="geometry" />
        </mxCell>
        <mxCell id="C64z6q1H1fPUdhVZjdeV-8" value="x core" style="whiteSpace=wrap;html=1;aspect=fixed;fillColor=#CC0066;fontColor=#ffffff;strokeWidth=2;fontSize=18;" vertex="1" parent="C64z6q1H1fPUdhVZjdeV-21">
          <mxGeometry x="364" y="30" width="50" height="50" as="geometry" />
        </mxCell>
        <mxCell id="C64z6q1H1fPUdhVZjdeV-14" value="" style="endArrow=none;html=1;rounded=0;entryX=0.5;entryY=1;entryDx=0;entryDy=0;exitX=1;exitY=0;exitDx=0;exitDy=0;strokeWidth=2;fontSize=18;" edge="1" parent="C64z6q1H1fPUdhVZjdeV-21" source="C64z6q1H1fPUdhVZjdeV-10" target="C64z6q1H1fPUdhVZjdeV-8">
          <mxGeometry width="50" height="50" relative="1" as="geometry">
            <mxPoint x="200" y="220" as="sourcePoint" />
            <mxPoint x="250" y="170" as="targetPoint" />
          </mxGeometry>
        </mxCell>
        <mxCell id="C64z6q1H1fPUdhVZjdeV-38" value="x-1 core" style="rounded=0;whiteSpace=wrap;html=1;fontColor=default;strokeColor=default;fillColor=#00CC66;strokeWidth=2;fontSize=18;" vertex="1" parent="C64z6q1H1fPUdhVZjdeV-48">
          <mxGeometry x="560" y="50" width="120" height="40" as="geometry" />
        </mxCell>
        <mxCell id="C64z6q1H1fPUdhVZjdeV-41" value="" style="endArrow=none;html=1;rounded=0;entryX=0;entryY=0.5;entryDx=0;entryDy=0;exitX=1;exitY=0.5;exitDx=0;exitDy=0;strokeWidth=2;fontSize=18;" edge="1" parent="C64z6q1H1fPUdhVZjdeV-48" source="C64z6q1H1fPUdhVZjdeV-21" target="C64z6q1H1fPUdhVZjdeV-38">
          <mxGeometry width="50" height="50" relative="1" as="geometry">
            <mxPoint x="300" y="260" as="sourcePoint" />
            <mxPoint x="350" y="210" as="targetPoint" />
          </mxGeometry>
        </mxCell>
        <mxCell id="C64z6q1H1fPUdhVZjdeV-39" value="x-1 core" style="rounded=0;whiteSpace=wrap;html=1;fontColor=default;strokeColor=default;fillColor=#00CC66;strokeWidth=2;fontSize=18;" vertex="1" parent="C64z6q1H1fPUdhVZjdeV-48">
          <mxGeometry x="590" y="165" width="120" height="40" as="geometry" />
        </mxCell>
        <mxCell id="C64z6q1H1fPUdhVZjdeV-42" value="" style="endArrow=none;html=1;rounded=0;entryX=1;entryY=0.5;entryDx=0;entryDy=0;exitX=0;exitY=0;exitDx=0;exitDy=0;strokeWidth=2;fontSize=18;" edge="1" parent="C64z6q1H1fPUdhVZjdeV-48" source="C64z6q1H1fPUdhVZjdeV-39" target="C64z6q1H1fPUdhVZjdeV-21">
          <mxGeometry width="50" height="50" relative="1" as="geometry">
            <mxPoint x="300" y="260" as="sourcePoint" />
            <mxPoint x="350" y="210" as="targetPoint" />
          </mxGeometry>
        </mxCell>
        <mxCell id="C64z6q1H1fPUdhVZjdeV-23" value="x-1 core" style="rounded=0;whiteSpace=wrap;html=1;fontColor=default;strokeColor=default;fillColor=#00CC66;strokeWidth=2;fontSize=18;" vertex="1" parent="C64z6q1H1fPUdhVZjdeV-48">
          <mxGeometry x="590" y="300" width="120" height="40" as="geometry" />
        </mxCell>
        <mxCell id="C64z6q1H1fPUdhVZjdeV-46" value="" style="endArrow=none;html=1;rounded=0;entryX=1;entryY=1;entryDx=0;entryDy=0;strokeWidth=2;fontSize=18;" edge="1" parent="C64z6q1H1fPUdhVZjdeV-48" source="C64z6q1H1fPUdhVZjdeV-23" target="C64z6q1H1fPUdhVZjdeV-21">
          <mxGeometry width="50" height="50" relative="1" as="geometry">
            <mxPoint x="470" y="400" as="sourcePoint" />
            <mxPoint x="520" y="350" as="targetPoint" />
          </mxGeometry>
        </mxCell>
        <mxCell id="C64z6q1H1fPUdhVZjdeV-22" value="Vertex B" style="ellipse;whiteSpace=wrap;html=1;aspect=fixed;fillColor=#00CC66;strokeWidth=2;fontSize=18;" vertex="1" parent="C64z6q1H1fPUdhVZjdeV-48">
          <mxGeometry x="320" y="370" width="70" height="70" as="geometry" />
        </mxCell>
        <mxCell id="C64z6q1H1fPUdhVZjdeV-27" value="" style="endArrow=none;html=1;rounded=0;exitX=0;exitY=0;exitDx=0;exitDy=0;entryX=0.296;entryY=0.995;entryDx=0;entryDy=0;entryPerimeter=0;strokeWidth=2;fontSize=18;" edge="1" parent="C64z6q1H1fPUdhVZjdeV-48" source="C64z6q1H1fPUdhVZjdeV-22" target="C64z6q1H1fPUdhVZjdeV-21">
          <mxGeometry width="50" height="50" relative="1" as="geometry">
            <mxPoint x="110" y="400" as="sourcePoint" />
            <mxPoint x="160" y="350" as="targetPoint" />
          </mxGeometry>
        </mxCell>
        <mxCell id="C64z6q1H1fPUdhVZjdeV-43" value="" style="endArrow=none;html=1;rounded=0;exitX=1;exitY=0.5;exitDx=0;exitDy=0;entryX=0;entryY=0.5;entryDx=0;entryDy=0;strokeWidth=2;fontSize=18;" edge="1" parent="C64z6q1H1fPUdhVZjdeV-48" source="C64z6q1H1fPUdhVZjdeV-22" target="C64z6q1H1fPUdhVZjdeV-23">
          <mxGeometry width="50" height="50" relative="1" as="geometry">
            <mxPoint x="384" y="450" as="sourcePoint" />
            <mxPoint x="434" y="400" as="targetPoint" />
          </mxGeometry>
        </mxCell>
        <mxCell id="C64z6q1H1fPUdhVZjdeV-29" value="UnLimited" style="text;html=1;align=center;verticalAlign=middle;whiteSpace=wrap;rounded=0;rotation=-23;strokeWidth=2;fontSize=18;" vertex="1" parent="C64z6q1H1fPUdhVZjdeV-48">
          <mxGeometry x="460" y="365" width="80" height="30" as="geometry" />
        </mxCell>
        <mxCell id="C64z6q1H1fPUdhVZjdeV-28" value="At most x-1 edges" style="text;html=1;align=center;verticalAlign=middle;whiteSpace=wrap;rounded=0;rotation=16;strokeWidth=2;fontSize=18;" vertex="1" parent="C64z6q1H1fPUdhVZjdeV-48">
          <mxGeometry x="140" y="360" width="180" height="30" as="geometry" />
        </mxCell>
        <mxCell id="C64z6q1H1fPUdhVZjdeV-50" value="&lt;font color=&quot;#00cc66&quot; style=&quot;font-size: 18px;&quot;&gt;x-1 core&lt;/font&gt;" style="text;html=1;align=center;verticalAlign=middle;whiteSpace=wrap;rounded=0;fontSize=18;" vertex="1" parent="1">
          <mxGeometry x="310" y="160" width="160" height="30" as="geometry" />
        </mxCell>
      </root>
    </mxGraphModel>
  </diagram>
</mxfile>
